<svg width="32" height="32" viewBox="0 0 32 32" fill="none" xmlns="http://www.w3.org/2000/svg">
<rect width="32" height="32" rx="7.5" fill="black"/>
<path d="M14.5446 7.8996C14.8716 8.19184 15.1772 8.50001 15.4628 8.83281C15.5822 8.96969 15.7051 9.10319 15.8281 9.23671C16.0069 9.43083 16.1832 9.62663 16.3561 9.82598C16.457 9.94142 16.5596 10.0553 16.6624 10.1691C16.8225 10.3466 16.9808 10.5256 17.1378 10.7059C17.2401 10.8223 17.3437 10.9374 17.4475 11.0524C17.6077 11.2299 17.7659 11.4089 17.9229 11.5892C18.0252 11.7056 18.1289 11.8207 18.2327 11.9358C18.393 12.1134 18.5514 12.2925 18.7085 12.4731C18.8083 12.5865 18.91 12.6981 19.0117 12.8099C19.2011 13.02 19.3826 13.2351 19.5601 13.4553C19.6471 13.5631 19.7348 13.6699 19.8235 13.7762C20.5385 14.6403 21.0781 15.532 21.0053 16.6959C20.8632 17.5807 20.3908 18.2788 19.8275 18.9533C19.8068 18.9782 19.7861 19.003 19.7648 19.0287C19.4982 19.3484 19.2265 19.6627 18.9465 19.971C18.8547 20.0725 18.7642 20.175 18.6743 20.2783C18.5079 20.4694 18.3381 20.6575 18.1683 20.8457C18.0744 20.9503 17.9815 21.0556 17.8892 21.1616C17.7226 21.3528 17.5528 21.541 17.3829 21.7292C17.2901 21.8327 17.1983 21.9369 17.1071 22.0419C16.9279 22.2477 16.7437 22.4489 16.5598 22.6505C16.4332 22.7902 16.309 22.9318 16.1853 23.0741C16.0462 23.2327 15.9045 23.3888 15.7632 23.5453C15.6724 23.6465 15.5828 23.7486 15.4938 23.8515C15.4336 23.92 15.3733 23.9885 15.3129 24.057C15.2706 24.1055 15.2284 24.1541 15.1848 24.2042C14.6726 24.7836 14.081 25.3568 13.3009 25.5292C12.7979 25.5596 12.3348 25.5721 11.8778 25.3329C11.8143 25.2997 11.8143 25.2997 11.7494 25.2658C11.2333 24.9651 10.7792 24.5217 10.3976 24.0646C10.2737 23.919 10.1433 23.7798 10.0131 23.6398C9.82521 23.4372 9.63971 23.2333 9.45891 23.0243C9.35864 22.9093 9.25654 22.7961 9.15432 22.6829C9.02327 22.5377 8.89311 22.3919 8.76481 22.2443C8.62688 22.0859 8.48616 21.9302 8.34463 21.775C8.17517 21.5892 8.00794 21.4018 7.84298 21.212C7.74135 21.0961 7.63822 20.9816 7.53493 20.8672C7.37461 20.6895 7.2162 20.5104 7.05916 20.3298C6.95934 20.2164 6.85763 20.1048 6.75591 19.993C6.56375 19.7801 6.38087 19.5611 6.20078 19.3378C6.1243 19.244 6.04657 19.1513 5.96769 19.0595C5.21795 18.1856 4.62807 17.2536 4.71328 16.0579C4.80556 15.3196 5.18743 14.6676 5.64565 14.095C5.67937 14.0525 5.71308 14.01 5.74782 13.9662C6.17884 13.4319 6.62939 12.9143 7.09539 12.4104C7.22408 12.2705 7.34943 12.1281 7.47398 11.9845C7.57493 11.869 7.67754 11.7552 7.78029 11.6413C7.91229 11.495 8.04347 11.3482 8.17287 11.1997C8.33935 11.0085 8.50911 10.8204 8.67893 10.6322C8.77281 10.5276 8.86572 10.4223 8.95803 10.3163C9.12451 10.1252 9.29427 9.9371 9.46409 9.74892C9.55796 9.64431 9.65087 9.539 9.74319 9.43301C9.94499 9.20157 10.1506 8.97367 10.3566 8.74598C10.4002 8.6971 10.4439 8.64822 10.4875 8.59933C11.6433 7.3113 13.0834 6.62821 14.5446 7.8996ZM12.345 9.05096C11.9806 9.36446 11.653 9.70816 11.338 10.071C11.2646 10.1529 11.191 10.2347 11.1172 10.3163C11.0809 10.3567 11.0446 10.3971 11.0072 10.4386C10.9323 10.5218 10.8575 10.6048 10.7825 10.6878C10.5866 10.905 10.3923 11.1233 10.2002 11.3438C10.0606 11.5026 9.91856 11.6592 9.77692 11.8161C9.68305 11.9208 9.59013 12.0261 9.49782 12.1321C9.33134 12.3232 9.16158 12.5113 8.99177 12.6995C8.89789 12.8041 8.80498 12.9094 8.71267 13.0154C8.58327 13.164 8.45209 13.3108 8.32009 13.457C8.12993 13.668 7.94187 13.8805 7.75576 14.095C7.73483 14.1188 7.7139 14.1425 7.69233 14.167C6.77854 15.1445 6.77854 15.1445 6.31733 16.3585C6.37416 17.0632 6.9026 17.6302 7.3467 18.1407C7.4429 18.2529 7.5347 18.3686 7.62694 18.484C7.85375 18.7631 8.09836 19.0238 8.34424 19.2859C8.4841 19.4351 8.61967 19.5875 8.75331 19.7423C8.8529 19.8568 8.95448 19.9694 9.05617 20.082C9.18722 20.2272 9.31738 20.373 9.44568 20.5206C9.58361 20.679 9.72433 20.8346 9.86587 20.9898C10.0353 21.1757 10.2026 21.363 10.3675 21.5529C10.4691 21.6688 10.5723 21.7833 10.6756 21.8977C10.8076 22.044 10.9387 22.1908 11.0681 22.3394C11.2336 22.5293 11.4019 22.7165 11.5711 22.9031C11.6417 22.9819 11.7113 23.0614 11.7797 23.142C12.228 23.6711 12.228 23.6711 12.8409 23.9312C13.1062 23.9288 13.2558 23.7826 13.4481 23.6153C13.4896 23.5849 13.5311 23.5546 13.5739 23.5233C13.713 23.402 13.828 23.2683 13.9477 23.1282C14.0314 23.0328 14.1181 22.9435 14.2088 22.8546C14.3576 22.7081 14.4953 22.5548 14.6316 22.3967C14.7346 22.2781 14.8396 22.1615 14.9448 22.0449C15.0768 21.8987 15.208 21.7518 15.3374 21.6033C15.504 21.4121 15.6738 21.2239 15.8437 21.0357C15.9365 20.9322 16.0283 20.8279 16.1195 20.723C16.2987 20.5172 16.4829 20.316 16.6668 20.1144C16.7935 19.9745 16.918 19.8328 17.0417 19.6902C17.1409 19.5772 17.2421 19.4662 17.3433 19.3551C17.5363 19.1415 17.718 18.9204 17.8988 18.6964C18.011 18.5618 18.1282 18.434 18.248 18.3061C19.0296 17.457 19.0296 17.457 19.4012 16.3953C19.346 15.7102 18.8317 15.1359 18.4044 14.6348C18.3577 14.5795 18.311 14.5241 18.2643 14.4688C17.9821 14.1358 17.6927 13.8105 17.3964 13.49C17.2677 13.3501 17.1423 13.2077 17.0178 13.0641C16.9168 12.9486 16.8142 12.8348 16.7114 12.7209C16.5513 12.5435 16.3931 12.3645 16.2361 12.1842C16.1338 12.0678 16.0301 11.9527 15.9263 11.8376C15.7661 11.6601 15.6079 11.4811 15.4509 11.3009C15.3112 11.1419 15.1691 10.9852 15.0273 10.8282C14.9355 10.7258 14.8448 10.6226 14.7547 10.5188C14.5874 10.3267 14.4155 10.139 14.2427 9.95191C14.1334 9.83342 14.0256 9.7143 13.9197 9.59269C13.4836 9.09182 12.9824 8.52745 12.345 9.05096Z" fill="white"/>
<path d="M20.8753 7.88735C21.2242 8.20036 21.5521 8.53754 21.8558 8.89456C21.9547 9.0103 22.0565 9.12307 22.1586 9.23597C22.3947 9.49781 22.6278 9.76183 22.8562 10.0303C23.0967 10.3128 23.3384 10.5928 23.5909 10.8646C23.7562 11.0425 23.9144 11.2241 24.0663 11.4136C24.2926 11.6948 24.5376 11.9562 24.7842 12.2193C24.9524 12.3988 25.1147 12.5825 25.2747 12.7693C25.3183 12.8194 25.3619 12.8696 25.4055 12.9197C25.5595 13.0975 25.712 13.2765 25.8636 13.4563C25.8888 13.4861 25.9139 13.516 25.9399 13.5467C26.7109 14.4673 27.3759 15.4436 27.2867 16.6952C27.1944 17.4337 26.8125 18.0854 26.3543 18.6581C26.3304 18.6882 26.3066 18.7183 26.282 18.7494C25.9909 19.1158 25.6941 19.4745 25.3775 19.8192C25.2692 19.9402 25.1677 20.065 25.0662 20.1917C24.865 20.4407 24.6499 20.6732 24.4306 20.9061C24.2714 21.076 24.1199 21.2488 23.9743 21.4308C23.7505 21.7103 23.5073 21.9693 23.2626 22.2303C23.0489 22.4584 22.8451 22.6941 22.643 22.9325C22.3582 23.2679 22.0678 23.5961 21.7665 23.9169C21.6297 24.0628 21.4962 24.2098 21.3674 24.3629C21.0255 24.7563 20.6389 25.0986 20.1712 25.3321C20.1312 25.3524 20.0911 25.3726 20.0499 25.3935C19.5218 25.6229 18.8785 25.6072 18.345 25.4009C17.9509 25.2025 17.5539 24.9207 17.3312 24.5347C17.2424 24.2387 17.2679 24.0153 17.414 23.7434C17.5725 23.5531 17.7092 23.437 17.962 23.4066C18.3734 23.3927 18.6359 23.5476 18.9444 23.8108C19.097 23.8871 19.2174 23.874 19.3861 23.8599C19.8051 23.6105 20.1627 23.2558 20.4754 22.8842C20.5814 22.7596 20.6921 22.6399 20.803 22.5196C20.9635 22.3439 21.1173 22.1654 21.2661 21.9798C21.4661 21.7316 21.6804 21.5003 21.8987 21.2684C22.0578 21.0985 22.2094 20.9257 22.3549 20.7437C22.5787 20.4642 22.822 20.2052 23.0667 19.9442C23.2574 19.7407 23.4402 19.5312 23.6214 19.3191C23.6703 19.2618 23.7192 19.2046 23.7681 19.1473C23.8199 19.0868 23.8716 19.0262 23.9233 18.9656C24.067 18.7976 24.2134 18.6331 24.3638 18.471C25.2126 17.545 25.2126 17.545 25.6336 16.3977C25.5615 15.4895 24.7381 14.7071 24.1576 14.0705C24.0474 13.9464 23.9431 13.8189 23.8394 13.6894C23.6382 13.4404 23.4231 13.2079 23.2038 12.975C23.0446 12.8051 22.8931 12.6322 22.7475 12.4503C22.5237 12.1708 22.2805 11.9118 22.0358 11.6507C21.8215 11.4221 21.6173 11.1856 21.4145 10.9468C21.1397 10.6238 20.8609 10.3059 20.5715 9.99587C20.4397 9.85463 20.3113 9.71161 20.1866 9.56415C19.9412 9.28165 19.6496 8.96396 19.2879 8.84338C19.0419 8.86008 18.9068 8.93846 18.7144 9.08875C18.4504 9.29322 18.2523 9.37694 17.9139 9.33411C17.6982 9.26586 17.5538 9.17362 17.4017 9.00593C17.278 8.74372 17.2376 8.48919 17.3128 8.20542C17.5172 7.7411 18.1024 7.44808 18.5518 7.27302C19.4185 7.01008 20.2141 7.31606 20.8753 7.88735Z" fill="white"/>
</svg>
