<svg width="6415" height="1024" viewBox="0 0 6415 1024" fill="none" xmlns="http://www.w3.org/2000/svg">
<rect width="1024" height="1024" rx="150" fill="#342E2E"/>
<path d="M465.429 252.789C475.894 262.141 485.672 272.002 494.813 282.652C498.633 287.032 502.565 291.304 506.504 295.577C512.223 301.789 517.865 308.054 523.397 314.433C526.628 318.127 529.911 321.771 533.199 325.413C538.325 331.093 543.387 336.82 548.412 342.589C551.685 346.314 555.002 349.998 558.324 353.68C563.45 359.36 568.512 365.087 573.537 370.856C576.81 374.581 580.127 378.265 583.449 381.946C588.58 387.631 593.649 393.363 598.674 399.141C601.869 402.771 605.123 406.342 608.378 409.918C614.438 416.643 620.248 423.524 625.928 430.572C628.711 434.021 631.517 437.438 634.356 440.841C657.236 468.491 674.502 497.027 672.172 534.271C667.626 562.584 652.509 584.922 634.485 606.507C633.822 607.303 633.16 608.099 632.477 608.919C623.945 619.152 615.251 629.21 606.293 639.074C603.353 642.322 600.458 645.602 597.582 648.907C592.255 655.024 586.823 661.042 581.388 667.064C578.384 670.412 575.411 673.782 572.457 677.173C567.128 683.292 561.694 689.313 556.257 695.337C553.286 698.648 550.349 701.984 547.43 705.342C541.696 711.928 535.802 718.365 529.918 724.818C525.866 729.29 521.89 733.82 517.932 738.374C513.483 743.449 508.947 748.443 504.425 753.452C501.519 756.692 498.653 759.958 495.806 763.249C493.878 765.442 491.948 767.634 490.016 769.824C488.664 771.379 487.311 772.934 485.918 774.535C469.525 793.077 450.597 811.418 425.633 816.935C409.538 817.908 394.718 818.31 380.094 810.654C378.06 809.591 378.06 809.591 375.984 808.507C359.47 798.885 344.937 784.697 332.727 770.07C328.761 765.411 324.588 760.956 320.422 756.476C314.41 749.994 308.474 743.466 302.689 736.779C299.48 733.101 296.213 729.478 292.942 725.854C288.748 721.208 284.583 716.543 280.477 711.819C276.064 706.75 271.561 701.769 267.031 696.803C261.609 690.856 256.258 684.861 250.979 678.787C247.727 675.077 244.427 671.413 241.121 667.751C235.991 662.066 230.922 656.335 225.897 650.557C222.702 646.927 219.447 643.355 216.193 639.779C210.043 632.964 204.191 625.956 198.428 618.813C195.981 615.811 193.494 612.843 190.969 609.906C166.978 581.94 148.102 552.118 150.828 513.856C153.781 490.23 166.001 469.364 180.664 451.042C181.743 449.682 182.822 448.321 183.934 446.92C197.726 429.821 212.144 413.261 227.056 397.135C231.174 392.657 235.185 388.1 239.171 383.504C242.401 379.81 245.685 376.167 248.973 372.524C253.197 367.844 257.395 363.145 261.535 358.391C266.863 352.274 272.295 346.256 277.729 340.234C280.733 336.886 283.706 333.516 286.66 330.125C291.988 324.008 297.42 317.989 302.854 311.967C305.858 308.62 308.831 305.25 311.785 301.858C318.243 294.452 324.822 287.159 331.414 279.873C332.811 278.309 334.208 276.745 335.604 275.18C372.588 233.964 418.671 212.105 465.429 252.789ZM395.045 289.633C383.383 299.665 372.899 310.663 362.821 322.273C360.47 324.895 358.115 327.512 355.754 330.125C354.592 331.416 353.43 332.708 352.233 334.038C349.839 336.698 347.442 339.356 345.044 342.013C338.775 348.962 332.555 355.947 326.409 363.004C321.943 368.086 317.397 373.096 312.865 378.119C309.861 381.466 306.888 384.836 303.934 388.228C298.606 394.345 293.174 400.363 287.74 406.385C284.736 409.732 281.763 413.103 278.809 416.494C274.668 421.249 270.47 425.947 266.246 430.627C260.161 437.378 254.143 444.177 248.188 451.042C247.518 451.802 246.848 452.563 246.158 453.346C216.917 484.628 216.917 484.628 202.158 523.475C203.976 546.025 220.887 564.169 235.098 580.505C238.176 584.096 241.114 587.796 244.066 591.491C251.324 600.42 259.151 608.764 267.019 617.15C271.495 621.925 275.833 626.802 280.109 631.756C283.296 635.419 286.547 639.022 289.801 642.626C293.994 647.272 298.16 651.937 302.265 656.661C306.679 661.73 311.182 666.711 315.711 671.677C321.134 677.623 326.485 683.619 331.764 689.693C335.016 693.403 338.316 697.067 341.621 700.729C345.845 705.409 350.043 710.108 354.184 714.862C359.479 720.94 364.866 726.931 370.28 732.903C372.536 735.422 374.764 737.968 376.953 740.546C391.3 757.477 391.3 757.477 410.911 765.8C419.402 765.723 424.19 761.047 430.344 755.691C431.672 754.72 433 753.748 434.368 752.747C438.819 748.866 442.499 744.589 446.329 740.104C449.009 737.051 451.783 734.193 454.684 731.351C459.446 726.663 463.852 721.755 468.215 716.696C471.511 712.901 474.869 709.169 478.238 705.44C482.462 700.759 486.66 696.061 490.801 691.307C496.13 685.188 501.564 679.167 507.001 673.143C509.972 669.832 512.91 666.496 515.828 663.138C521.562 656.552 527.456 650.115 533.341 643.662C537.397 639.185 541.379 634.65 545.339 630.087C548.512 626.473 551.75 622.921 554.987 619.365C561.165 612.529 566.978 605.455 572.764 598.288C576.355 593.978 580.105 589.891 583.94 585.798C608.95 558.625 608.95 558.625 620.842 524.652C619.074 502.728 602.619 484.351 588.946 468.316C587.451 466.545 585.956 464.775 584.462 463.004C575.43 452.347 566.17 441.938 556.687 431.682C552.569 427.204 548.557 422.648 544.572 418.052C541.341 414.358 538.058 410.715 534.77 407.072C529.644 401.392 524.582 395.665 519.557 389.896C516.284 386.171 512.967 382.487 509.645 378.806C504.519 373.126 499.457 367.399 494.432 361.63C489.963 356.543 485.413 351.529 480.876 346.503C477.938 343.228 475.036 339.926 472.154 336.602C466.801 330.456 461.3 324.45 455.771 318.463C452.273 314.671 448.821 310.86 445.434 306.968C431.48 290.94 415.439 272.88 395.045 289.633Z" fill="white"/>
<path d="M668.008 252.421C679.173 262.437 689.666 273.227 699.383 284.651C702.547 288.355 705.807 291.964 709.074 295.576C716.628 303.955 724.086 312.404 731.396 320.996C739.092 330.034 746.827 338.995 754.908 347.693C760.197 353.386 765.259 359.195 770.12 365.261C777.36 374.259 785.199 382.623 793.092 391.043C798.474 396.786 803.668 402.667 808.789 408.642C810.183 410.248 811.578 411.853 812.973 413.457C817.902 419.145 822.782 424.873 827.633 430.627C828.438 431.582 829.244 432.536 830.073 433.52C854.745 462.978 876.026 494.22 873.172 534.271C870.218 557.902 857.996 578.759 843.336 597.085C842.572 598.049 841.808 599.012 841.02 600.005C831.708 611.732 822.209 623.208 812.077 634.24C808.613 638.11 805.363 642.105 802.115 646.158C795.678 654.127 788.793 661.567 781.776 669.019C776.684 674.457 771.833 679.988 767.176 685.81C760.015 694.755 752.231 703.042 744.4 711.396C737.562 718.693 731.04 726.237 724.575 733.865C715.459 744.598 706.167 755.101 696.527 765.367C692.148 770.034 687.875 774.74 683.753 779.639C672.813 792.226 660.443 803.181 645.477 810.653C644.195 811.301 642.914 811.949 641.594 812.616C624.695 819.957 604.11 819.454 587.038 812.855C574.426 806.505 561.721 797.487 554.595 785.135C551.753 775.662 552.572 768.515 557.245 759.813C562.318 753.725 566.692 750.009 574.782 749.035C587.945 748.593 596.345 753.55 606.219 761.972C611.102 764.414 614.954 763.992 620.352 763.543C633.761 755.562 645.205 744.212 655.211 732.319C658.603 728.332 662.146 724.501 665.694 720.652C670.83 715.03 675.753 709.319 680.514 703.378C686.914 695.438 693.769 688.034 700.755 680.615C705.848 675.178 710.698 669.647 715.356 663.825C722.517 654.88 730.301 646.593 738.131 638.239C744.234 631.727 750.085 625.023 755.881 618.237C757.446 616.405 759.012 614.572 760.578 612.74C762.234 610.803 763.888 608.865 765.542 606.926C770.141 601.549 774.826 596.285 779.64 591.098C806.801 561.466 806.801 561.466 820.272 524.75C817.966 495.689 791.617 470.652 773.04 450.281C769.513 446.31 766.178 442.231 762.857 438.086C756.42 430.118 749.535 422.677 742.519 415.226C737.426 409.788 732.575 404.257 727.918 398.435C720.757 389.489 712.973 381.203 705.142 372.849C698.286 365.533 691.751 357.965 685.262 350.324C676.467 339.986 667.548 329.815 658.284 319.893C654.068 315.374 649.959 310.797 645.967 306.078C638.115 297.038 628.786 286.872 617.211 283.013C609.338 283.548 605.015 286.056 598.858 290.865C590.411 297.408 584.071 300.088 573.242 298.717C566.341 296.533 561.719 293.581 556.852 288.215C552.894 279.825 551.6 271.68 554.006 262.599C560.547 247.741 579.274 238.364 593.656 232.762C621.391 224.348 646.848 234.139 668.008 252.421Z" fill="white"/>
<rect width="1024" height="1024" rx="150" fill="#342E2E"/>
<path d="M465.429 252.789C475.894 262.141 485.672 272.002 494.813 282.652C498.633 287.032 502.565 291.304 506.504 295.577C512.223 301.789 517.865 308.054 523.397 314.433C526.628 318.127 529.911 321.771 533.199 325.413C538.325 331.093 543.387 336.82 548.412 342.589C551.685 346.314 555.002 349.998 558.324 353.68C563.45 359.36 568.512 365.087 573.537 370.856C576.81 374.581 580.127 378.265 583.449 381.946C588.58 387.631 593.649 393.363 598.674 399.141C601.869 402.771 605.123 406.342 608.378 409.918C614.438 416.643 620.248 423.524 625.928 430.572C628.711 434.021 631.517 437.438 634.356 440.841C657.236 468.491 674.502 497.027 672.172 534.271C667.626 562.584 652.509 584.922 634.485 606.507C633.822 607.303 633.16 608.099 632.477 608.919C623.945 619.152 615.251 629.21 606.293 639.074C603.353 642.322 600.458 645.602 597.582 648.907C592.255 655.024 586.823 661.042 581.388 667.064C578.384 670.412 575.411 673.782 572.457 677.173C567.128 683.292 561.694 689.313 556.257 695.337C553.286 698.648 550.349 701.984 547.43 705.342C541.696 711.928 535.802 718.365 529.918 724.818C525.866 729.29 521.89 733.82 517.932 738.374C513.483 743.449 508.947 748.443 504.425 753.452C501.519 756.692 498.653 759.958 495.806 763.249C493.878 765.442 491.948 767.634 490.016 769.824C488.664 771.379 487.311 772.934 485.918 774.535C469.525 793.077 450.597 811.418 425.633 816.935C409.538 817.908 394.718 818.31 380.094 810.654C378.06 809.591 378.06 809.591 375.984 808.507C359.47 798.885 344.937 784.697 332.727 770.07C328.761 765.411 324.588 760.956 320.422 756.476C314.41 749.994 308.474 743.466 302.689 736.779C299.48 733.101 296.213 729.478 292.942 725.854C288.748 721.208 284.583 716.543 280.477 711.819C276.064 706.75 271.561 701.769 267.031 696.803C261.609 690.856 256.258 684.861 250.979 678.787C247.727 675.077 244.427 671.413 241.121 667.751C235.991 662.066 230.922 656.335 225.897 650.557C222.702 646.927 219.447 643.355 216.193 639.779C210.043 632.964 204.191 625.956 198.428 618.813C195.981 615.811 193.494 612.843 190.969 609.906C166.978 581.94 148.102 552.118 150.828 513.856C153.781 490.23 166.001 469.364 180.664 451.042C181.743 449.682 182.822 448.321 183.934 446.92C197.726 429.821 212.144 413.261 227.056 397.135C231.174 392.657 235.185 388.1 239.171 383.504C242.401 379.81 245.685 376.167 248.973 372.524C253.197 367.844 257.395 363.145 261.535 358.391C266.863 352.274 272.295 346.256 277.729 340.234C280.733 336.886 283.706 333.516 286.66 330.125C291.988 324.008 297.42 317.989 302.854 311.967C305.858 308.62 308.831 305.25 311.785 301.858C318.243 294.452 324.822 287.159 331.414 279.873C332.811 278.309 334.208 276.745 335.604 275.18C372.588 233.964 418.671 212.105 465.429 252.789ZM395.045 289.633C383.383 299.665 372.899 310.663 362.821 322.273C360.47 324.895 358.115 327.512 355.754 330.125C354.592 331.416 353.43 332.708 352.233 334.038C349.839 336.698 347.442 339.356 345.044 342.013C338.775 348.962 332.555 355.947 326.409 363.004C321.943 368.086 317.397 373.096 312.865 378.119C309.861 381.466 306.888 384.836 303.934 388.228C298.606 394.345 293.174 400.363 287.74 406.385C284.736 409.732 281.763 413.103 278.809 416.494C274.668 421.249 270.47 425.947 266.246 430.627C260.161 437.378 254.143 444.177 248.188 451.042C247.518 451.802 246.848 452.563 246.158 453.346C216.917 484.628 216.917 484.628 202.158 523.475C203.976 546.025 220.887 564.169 235.098 580.505C238.176 584.096 241.114 587.796 244.066 591.491C251.324 600.42 259.151 608.764 267.019 617.15C271.495 621.925 275.833 626.802 280.109 631.756C283.296 635.419 286.547 639.022 289.801 642.626C293.994 647.272 298.16 651.937 302.265 656.661C306.679 661.73 311.182 666.711 315.711 671.677C321.134 677.623 326.485 683.619 331.764 689.693C335.016 693.403 338.316 697.067 341.621 700.729C345.845 705.409 350.043 710.108 354.184 714.862C359.479 720.94 364.866 726.931 370.28 732.903C372.536 735.422 374.764 737.968 376.953 740.546C391.3 757.477 391.3 757.477 410.911 765.8C419.402 765.723 424.19 761.047 430.344 755.691C431.672 754.72 433 753.748 434.368 752.747C438.819 748.866 442.499 744.589 446.329 740.104C449.009 737.051 451.783 734.193 454.684 731.351C459.446 726.663 463.852 721.755 468.215 716.696C471.511 712.901 474.869 709.169 478.238 705.44C482.462 700.759 486.66 696.061 490.801 691.307C496.13 685.188 501.564 679.167 507.001 673.143C509.972 669.832 512.91 666.496 515.828 663.138C521.562 656.552 527.456 650.115 533.341 643.662C537.397 639.185 541.379 634.65 545.339 630.087C548.512 626.473 551.75 622.921 554.987 619.365C561.165 612.529 566.978 605.455 572.764 598.288C576.355 593.978 580.105 589.891 583.94 585.798C608.95 558.625 608.95 558.625 620.842 524.652C619.074 502.728 602.619 484.351 588.946 468.316C587.451 466.545 585.956 464.775 584.462 463.004C575.43 452.347 566.17 441.938 556.687 431.682C552.569 427.204 548.557 422.648 544.572 418.052C541.341 414.358 538.058 410.715 534.77 407.072C529.644 401.392 524.582 395.665 519.557 389.896C516.284 386.171 512.967 382.487 509.645 378.806C504.519 373.126 499.457 367.399 494.432 361.63C489.963 356.543 485.413 351.529 480.876 346.503C477.938 343.228 475.036 339.926 472.154 336.602C466.801 330.456 461.3 324.45 455.771 318.463C452.273 314.671 448.821 310.86 445.434 306.968C431.48 290.94 415.439 272.88 395.045 289.633Z" fill="white"/>
<path d="M668.008 252.421C679.173 262.437 689.666 273.227 699.383 284.651C702.547 288.355 705.807 291.964 709.074 295.576C716.628 303.955 724.086 312.404 731.396 320.996C739.092 330.034 746.827 338.995 754.908 347.693C760.197 353.386 765.259 359.195 770.12 365.261C777.36 374.259 785.199 382.623 793.092 391.043C798.474 396.786 803.668 402.667 808.789 408.642C810.183 410.248 811.578 411.853 812.973 413.457C817.902 419.145 822.782 424.873 827.633 430.627C828.438 431.582 829.244 432.536 830.073 433.52C854.745 462.978 876.026 494.22 873.172 534.271C870.218 557.902 857.996 578.759 843.336 597.085C842.572 598.049 841.808 599.012 841.02 600.005C831.708 611.732 822.209 623.208 812.077 634.24C808.613 638.11 805.363 642.105 802.115 646.158C795.678 654.127 788.793 661.567 781.776 669.019C776.684 674.457 771.833 679.988 767.176 685.81C760.015 694.755 752.231 703.042 744.4 711.396C737.562 718.693 731.04 726.237 724.575 733.865C715.459 744.598 706.167 755.101 696.527 765.367C692.148 770.034 687.875 774.74 683.753 779.639C672.813 792.226 660.443 803.181 645.477 810.653C644.195 811.301 642.914 811.949 641.594 812.616C624.695 819.957 604.11 819.454 587.038 812.855C574.426 806.505 561.721 797.487 554.595 785.135C551.753 775.662 552.572 768.515 557.245 759.813C562.318 753.725 566.692 750.009 574.782 749.035C587.945 748.593 596.345 753.55 606.219 761.972C611.102 764.414 614.954 763.992 620.352 763.543C633.761 755.562 645.205 744.212 655.211 732.319C658.603 728.332 662.146 724.501 665.694 720.652C670.83 715.03 675.753 709.319 680.514 703.378C686.914 695.438 693.769 688.034 700.755 680.615C705.848 675.178 710.698 669.647 715.356 663.825C722.517 654.88 730.301 646.593 738.131 638.239C744.234 631.727 750.085 625.023 755.881 618.237C757.446 616.405 759.012 614.572 760.578 612.74C762.234 610.803 763.888 608.865 765.542 606.926C770.141 601.549 774.826 596.285 779.64 591.098C806.801 561.466 806.801 561.466 820.272 524.75C817.966 495.689 791.617 470.652 773.04 450.281C769.513 446.31 766.178 442.231 762.857 438.086C756.42 430.118 749.535 422.677 742.519 415.226C737.426 409.788 732.575 404.257 727.918 398.435C720.757 389.489 712.973 381.203 705.142 372.849C698.286 365.533 691.751 357.965 685.262 350.324C676.467 339.986 667.548 329.815 658.284 319.893C654.068 315.374 649.959 310.797 645.967 306.078C638.115 297.038 628.786 286.872 617.211 283.013C609.338 283.548 605.015 286.056 598.858 290.865C590.411 297.408 584.071 300.088 573.242 298.717C566.341 296.533 561.719 293.581 556.852 288.215C552.894 279.825 551.6 271.68 554.006 262.599C560.547 247.741 579.274 238.364 593.656 232.762C621.391 224.348 646.848 234.139 668.008 252.421Z" fill="white"/>
<path d="M1346.65 766V256.909H1408.3V509.466H1414.26L1642.95 256.909H1723.49L1509.72 486.597L1723.49 766H1648.92L1471.93 529.352L1408.3 600.943V766H1346.65ZM1927.39 773.955C1890.6 773.955 1858.87 765.834 1832.19 749.594C1805.67 733.188 1785.2 710.318 1770.79 680.986C1756.53 651.488 1749.41 617.184 1749.41 578.074C1749.41 538.964 1756.53 504.494 1770.79 474.665C1785.2 444.67 1805.26 421.303 1830.94 404.565C1856.8 387.662 1886.96 379.21 1921.43 379.21C1941.31 379.21 1960.95 382.525 1980.34 389.153C1999.73 395.782 2017.38 406.554 2033.29 421.469C2049.2 436.218 2061.87 455.773 2071.32 480.134C2080.77 504.494 2085.49 534.49 2085.49 570.119V594.977H1791.17V544.267H2025.83C2025.83 522.723 2021.52 503.5 2012.9 486.597C2004.45 469.693 1992.35 456.353 1976.61 446.575C1961.03 436.798 1942.64 431.909 1921.43 431.909C1898.06 431.909 1877.84 437.709 1860.77 449.31C1843.87 460.744 1830.86 475.659 1821.75 494.054C1812.63 512.449 1808.07 532.169 1808.07 553.216V587.023C1808.07 615.858 1813.05 640.302 1822.99 660.354C1833.1 680.24 1847.1 695.403 1865 705.844C1882.9 716.118 1903.69 721.256 1927.39 721.256C1942.8 721.256 1956.72 719.101 1969.15 714.793C1981.75 710.318 1992.6 703.689 2001.72 694.906C2010.83 685.957 2017.87 674.854 2022.85 661.597L2079.52 677.506C2073.56 696.729 2063.53 713.633 2049.44 728.216C2035.36 742.634 2017.96 753.902 1997.24 762.023C1976.53 769.977 1953.24 773.955 1927.39 773.955ZM2200.89 909.182C2190.95 909.182 2182.08 908.353 2174.29 906.696C2166.5 905.205 2161.12 903.713 2158.14 902.222L2173.05 850.517C2187.3 854.163 2199.9 855.489 2210.83 854.494C2221.77 853.5 2231.47 848.611 2239.92 839.828C2248.54 831.211 2256.41 817.207 2263.53 797.818L2274.47 767.989L2133.28 384.182H2196.91L2302.31 688.443H2306.29L2411.69 384.182H2475.32L2313.25 821.682C2305.96 841.402 2296.93 857.726 2286.15 870.652C2275.38 883.744 2262.87 893.438 2248.62 899.736C2234.53 906.033 2218.62 909.182 2200.89 909.182ZM2722.78 384.182V433.898H2516.96V384.182H2722.78ZM2578.61 766V331.483C2578.61 309.608 2583.75 291.379 2594.02 276.795C2604.29 262.212 2617.63 251.275 2634.04 243.983C2650.45 236.691 2667.77 233.045 2685.99 233.045C2700.41 233.045 2712.18 234.205 2721.29 236.526C2730.41 238.846 2737.2 241 2741.68 242.989L2724.77 293.699C2721.79 292.705 2717.65 291.462 2712.34 289.97C2707.21 288.479 2700.41 287.733 2691.96 287.733C2672.57 287.733 2658.57 292.622 2649.95 302.399C2641.5 312.177 2637.27 326.511 2637.27 345.403V766H2578.61ZM2805 766V384.182H2861.68V441.852H2865.66C2872.62 422.96 2885.21 407.631 2903.44 395.865C2921.67 384.099 2942.22 378.216 2965.09 378.216C2969.4 378.216 2974.78 378.299 2981.24 378.464C2987.71 378.63 2992.6 378.879 2995.91 379.21V438.869C2993.92 438.372 2989.36 437.626 2982.24 436.632C2975.28 435.472 2967.9 434.892 2960.12 434.892C2941.55 434.892 2924.98 438.786 2910.4 446.575C2895.98 454.198 2884.55 464.804 2876.1 478.393C2867.81 491.817 2863.67 507.146 2863.67 524.381V766H2805ZM3177.81 774.949C3153.61 774.949 3131.66 770.392 3111.94 761.277C3092.21 751.997 3076.55 738.656 3064.95 721.256C3053.35 703.689 3047.55 682.477 3047.55 657.619C3047.55 635.744 3051.86 618.012 3060.48 604.423C3069.1 590.669 3080.61 579.897 3095.03 572.108C3109.45 564.319 3125.36 558.519 3142.76 554.707C3160.33 550.73 3177.97 547.581 3195.71 545.261C3218.91 542.278 3237.72 540.041 3252.13 538.55C3266.72 536.893 3277.32 534.158 3283.95 530.347C3290.75 526.535 3294.14 519.906 3294.14 510.46V508.472C3294.14 483.945 3287.43 464.887 3274.01 451.298C3260.75 437.709 3240.62 430.915 3213.6 430.915C3185.6 430.915 3163.64 437.046 3147.73 449.31C3131.82 461.573 3120.64 474.665 3114.17 488.585L3058.49 468.699C3068.43 445.498 3081.69 427.435 3098.26 414.509C3115 401.417 3133.23 392.302 3152.95 387.165C3172.84 381.862 3192.39 379.21 3211.62 379.21C3223.88 379.21 3237.97 380.702 3253.87 383.685C3269.95 386.502 3285.44 392.385 3300.36 401.334C3315.44 410.283 3327.95 423.789 3337.89 441.852C3347.84 459.916 3352.81 484.111 3352.81 514.438V766H3294.14V714.295H3291.16C3287.18 722.581 3280.56 731.447 3271.27 740.893C3261.99 750.339 3249.65 758.377 3234.24 765.006C3218.82 771.634 3200.02 774.949 3177.81 774.949ZM3186.76 722.25C3209.96 722.25 3229.51 717.693 3245.42 708.578C3261.5 699.464 3273.59 687.697 3281.72 673.28C3290 658.862 3294.14 643.699 3294.14 627.79V574.097C3291.66 577.08 3286.19 579.814 3277.74 582.3C3269.45 584.62 3259.84 586.691 3248.9 588.514C3238.13 590.171 3227.61 591.663 3217.33 592.989C3207.22 594.149 3199.02 595.143 3192.72 595.972C3177.48 597.96 3163.23 601.192 3149.97 605.666C3136.88 609.975 3126.27 616.521 3118.15 625.304C3110.2 633.921 3106.22 645.687 3106.22 660.602C3106.22 680.986 3113.76 696.398 3128.84 706.838C3144.08 717.113 3163.39 722.25 3186.76 722.25ZM3459.88 766V384.182H3516.56V443.841H3521.53C3529.49 423.457 3542.33 407.631 3560.06 396.362C3577.79 384.928 3599.09 379.21 3623.95 379.21C3649.14 379.21 3670.1 384.928 3686.84 396.362C3703.74 407.631 3716.92 423.457 3726.36 443.841H3730.34C3740.12 424.12 3754.78 408.46 3774.34 396.859C3793.89 385.093 3817.34 379.21 3844.69 379.21C3878.82 379.21 3906.75 389.899 3928.46 411.277C3950.17 432.489 3961.02 465.55 3961.02 510.46V766H3902.36V510.46C3902.36 482.288 3894.65 462.153 3879.24 450.055C3863.83 437.958 3845.68 431.909 3824.8 431.909C3797.95 431.909 3777.15 440.029 3762.41 456.27C3747.66 472.345 3740.28 492.728 3740.28 517.42V766H3680.62V504.494C3680.62 482.785 3673.58 465.302 3659.49 452.044C3645.41 438.621 3627.26 431.909 3605.06 431.909C3589.81 431.909 3575.56 435.969 3562.3 444.089C3549.21 452.21 3538.6 463.479 3530.48 477.896C3522.53 492.148 3518.55 508.637 3518.55 527.364V766H3459.88ZM4228.37 773.955C4191.58 773.955 4159.84 765.834 4133.16 749.594C4106.65 733.188 4086.18 710.318 4071.76 680.986C4057.51 651.488 4050.39 617.184 4050.39 578.074C4050.39 538.964 4057.51 504.494 4071.76 474.665C4086.18 444.67 4106.23 421.303 4131.92 404.565C4157.77 387.662 4187.93 379.21 4222.4 379.21C4242.29 379.21 4261.93 382.525 4281.32 389.153C4300.7 395.782 4318.35 406.554 4334.26 421.469C4350.17 436.218 4362.85 455.773 4372.3 480.134C4381.74 504.494 4386.46 534.49 4386.46 570.119V594.977H4092.15V544.267H4326.81C4326.81 522.723 4322.5 503.5 4313.88 486.597C4305.43 469.693 4293.33 456.353 4277.59 446.575C4262.01 436.798 4243.61 431.909 4222.4 431.909C4199.04 431.909 4178.82 437.709 4161.75 449.31C4144.85 460.744 4131.84 475.659 4122.72 494.054C4113.61 512.449 4109.05 532.169 4109.05 553.216V587.023C4109.05 615.858 4114.02 640.302 4123.96 660.354C4134.07 680.24 4148.08 695.403 4165.97 705.844C4183.87 716.118 4204.67 721.256 4228.37 721.256C4243.78 721.256 4257.7 719.101 4270.13 714.793C4282.72 710.318 4293.58 703.689 4302.69 694.906C4311.81 685.957 4318.85 674.854 4323.82 661.597L4380.5 677.506C4374.53 696.729 4364.51 713.633 4350.42 728.216C4336.33 742.634 4318.93 753.902 4298.22 762.023C4277.5 769.977 4254.22 773.955 4228.37 773.955Z" fill="#817A7A"/>
<path d="M4680.53 766V256.909H4742.18V711.312H4978.83V766H4680.53ZM5178.69 774.949C5154.49 774.949 5132.53 770.392 5112.81 761.277C5093.09 751.997 5077.43 738.656 5065.83 721.256C5054.23 703.689 5048.43 682.477 5048.43 657.619C5048.43 635.744 5052.74 618.012 5061.36 604.423C5069.98 590.669 5081.49 579.897 5095.91 572.108C5110.33 564.319 5126.24 558.519 5143.64 554.707C5161.2 550.73 5178.85 547.581 5196.59 545.261C5219.79 542.278 5238.6 540.041 5253.01 538.55C5267.6 536.893 5278.2 534.158 5284.83 530.347C5291.63 526.535 5295.02 519.906 5295.02 510.46V508.472C5295.02 483.945 5288.31 464.887 5274.89 451.298C5261.63 437.709 5241.5 430.915 5214.48 430.915C5186.48 430.915 5164.52 437.046 5148.61 449.31C5132.7 461.573 5121.51 474.665 5115.05 488.585L5059.37 468.699C5069.31 445.498 5082.57 427.435 5099.14 414.509C5115.88 401.417 5134.11 392.302 5153.83 387.165C5173.72 381.862 5193.27 379.21 5212.49 379.21C5224.76 379.21 5238.84 380.702 5254.75 383.685C5270.83 386.502 5286.32 392.385 5301.24 401.334C5316.32 410.283 5328.83 423.789 5338.77 441.852C5348.72 459.916 5353.69 484.111 5353.69 514.438V766H5295.02V714.295H5292.04C5288.06 722.581 5281.43 731.447 5272.15 740.893C5262.87 750.339 5250.53 758.377 5235.12 765.006C5219.7 771.634 5200.89 774.949 5178.69 774.949ZM5187.64 722.25C5210.84 722.25 5230.39 717.693 5246.3 708.578C5262.38 699.464 5274.47 687.697 5282.59 673.28C5290.88 658.862 5295.02 643.699 5295.02 627.79V574.097C5292.54 577.08 5287.07 579.814 5278.62 582.3C5270.33 584.62 5260.72 586.691 5249.78 588.514C5239.01 590.171 5228.49 591.663 5218.21 592.989C5208.1 594.149 5199.9 595.143 5193.6 595.972C5178.36 597.96 5164.1 601.192 5150.85 605.666C5137.76 609.975 5127.15 616.521 5119.03 625.304C5111.07 633.921 5107.1 645.687 5107.1 660.602C5107.1 680.986 5114.64 696.398 5129.72 706.838C5144.96 717.113 5164.27 722.25 5187.64 722.25ZM5468.72 766V256.909H5527.38V444.835H5532.35C5536.66 438.206 5542.63 429.755 5550.25 419.48C5558.04 409.04 5569.14 399.759 5583.56 391.639C5598.15 383.353 5617.87 379.21 5642.72 379.21C5674.87 379.21 5703.21 387.248 5727.74 403.322C5752.26 419.397 5771.41 442.184 5785.16 471.682C5798.91 501.18 5805.79 535.981 5805.79 576.085C5805.79 616.521 5798.91 651.571 5785.16 681.234C5771.41 710.732 5752.35 733.602 5727.99 749.842C5703.63 765.917 5675.54 773.955 5643.72 773.955C5619.19 773.955 5599.55 769.894 5584.8 761.774C5570.06 753.488 5558.7 744.125 5550.75 733.685C5542.79 723.079 5536.66 714.295 5532.35 707.335H5525.39V766H5468.72ZM5526.39 575.091C5526.39 603.926 5530.61 629.364 5539.07 651.405C5547.52 673.28 5559.86 690.432 5576.1 702.861C5592.34 715.124 5612.23 721.256 5635.76 721.256C5660.29 721.256 5680.76 714.793 5697.16 701.866C5713.73 688.775 5726.16 671.208 5734.45 649.168C5742.9 626.961 5747.13 602.269 5747.13 575.091C5747.13 548.244 5742.98 524.049 5734.7 502.506C5726.58 480.796 5714.23 463.644 5697.66 451.05C5681.25 438.289 5660.62 431.909 5635.76 431.909C5611.9 431.909 5591.85 437.958 5575.61 450.055C5559.37 461.987 5547.1 478.725 5538.82 500.268C5530.53 521.646 5526.39 546.587 5526.39 575.091ZM6165.98 469.693L6113.28 484.608C6109.97 475.825 6105.08 467.29 6098.62 459.004C6092.32 450.553 6083.7 443.592 6072.77 438.124C6061.83 432.655 6047.83 429.92 6030.76 429.92C6007.39 429.92 5987.92 435.306 5972.34 446.078C5956.93 456.684 5949.22 470.19 5949.22 486.597C5949.22 501.18 5954.53 512.697 5965.13 521.149C5975.74 529.601 5992.31 536.644 6014.85 542.278L6071.52 556.199C6105.66 564.485 6131.1 577.162 6147.84 594.232C6164.58 611.135 6172.94 632.927 6172.94 659.608C6172.94 681.483 6166.65 701.038 6154.05 718.273C6141.62 735.508 6124.22 749.097 6101.85 759.04C6079.48 768.983 6053.46 773.955 6023.8 773.955C5984.85 773.955 5952.62 765.503 5927.1 748.599C5901.58 731.696 5885.42 707.004 5878.63 674.523L5934.31 660.602C5939.61 681.152 5949.64 696.563 5964.39 706.838C5979.3 717.113 5998.77 722.25 6022.8 722.25C6050.15 722.25 6071.85 716.45 6087.93 704.849C6104.17 693.083 6112.29 678.997 6112.29 662.591C6112.29 649.333 6107.65 638.23 6098.37 629.281C6089.09 620.167 6074.84 613.372 6055.61 608.898L5991.98 593.983C5957.01 585.697 5931.32 572.854 5914.92 555.453C5898.68 537.887 5890.56 515.929 5890.56 489.58C5890.56 468.036 5896.61 448.978 5908.7 432.406C5920.97 415.834 5937.62 402.825 5958.67 393.379C5979.88 383.933 6003.91 379.21 6030.76 379.21C6068.54 379.21 6098.2 387.496 6119.75 404.068C6141.46 420.64 6156.87 442.515 6165.98 469.693Z" fill="#342E2E"/>
<path d="M1346.65 766V256.909H1408.3V509.466H1414.26L1642.95 256.909H1723.49L1509.72 486.597L1723.49 766H1648.92L1471.93 529.352L1408.3 600.943V766H1346.65ZM1927.39 773.955C1890.6 773.955 1858.87 765.834 1832.19 749.594C1805.67 733.188 1785.2 710.318 1770.79 680.986C1756.53 651.488 1749.41 617.184 1749.41 578.074C1749.41 538.964 1756.53 504.494 1770.79 474.665C1785.2 444.67 1805.26 421.303 1830.94 404.565C1856.8 387.662 1886.96 379.21 1921.43 379.21C1941.31 379.21 1960.95 382.525 1980.34 389.153C1999.73 395.782 2017.38 406.554 2033.29 421.469C2049.2 436.218 2061.87 455.773 2071.32 480.134C2080.77 504.494 2085.49 534.49 2085.49 570.119V594.977H1791.17V544.267H2025.83C2025.83 522.723 2021.52 503.5 2012.9 486.597C2004.45 469.693 1992.35 456.353 1976.61 446.575C1961.03 436.798 1942.64 431.909 1921.43 431.909C1898.06 431.909 1877.84 437.709 1860.77 449.31C1843.87 460.744 1830.86 475.659 1821.75 494.054C1812.63 512.449 1808.07 532.169 1808.07 553.216V587.023C1808.07 615.858 1813.05 640.302 1822.99 660.354C1833.1 680.24 1847.1 695.403 1865 705.844C1882.9 716.118 1903.69 721.256 1927.39 721.256C1942.8 721.256 1956.72 719.101 1969.15 714.793C1981.75 710.318 1992.6 703.689 2001.72 694.906C2010.83 685.957 2017.87 674.854 2022.85 661.597L2079.52 677.506C2073.56 696.729 2063.53 713.633 2049.44 728.216C2035.36 742.634 2017.96 753.902 1997.24 762.023C1976.53 769.977 1953.24 773.955 1927.39 773.955ZM2200.89 909.182C2190.95 909.182 2182.08 908.353 2174.29 906.696C2166.5 905.205 2161.12 903.713 2158.14 902.222L2173.05 850.517C2187.3 854.163 2199.9 855.489 2210.83 854.494C2221.77 853.5 2231.47 848.611 2239.92 839.828C2248.54 831.211 2256.41 817.207 2263.53 797.818L2274.47 767.989L2133.28 384.182H2196.91L2302.31 688.443H2306.29L2411.69 384.182H2475.32L2313.25 821.682C2305.96 841.402 2296.93 857.726 2286.15 870.652C2275.38 883.744 2262.87 893.438 2248.62 899.736C2234.53 906.033 2218.62 909.182 2200.89 909.182ZM2722.78 384.182V433.898H2516.96V384.182H2722.78ZM2578.61 766V331.483C2578.61 309.608 2583.75 291.379 2594.02 276.795C2604.29 262.212 2617.63 251.275 2634.04 243.983C2650.45 236.691 2667.77 233.045 2685.99 233.045C2700.41 233.045 2712.18 234.205 2721.29 236.526C2730.41 238.846 2737.2 241 2741.68 242.989L2724.77 293.699C2721.79 292.705 2717.65 291.462 2712.34 289.97C2707.21 288.479 2700.41 287.733 2691.96 287.733C2672.57 287.733 2658.57 292.622 2649.95 302.399C2641.5 312.177 2637.27 326.511 2637.27 345.403V766H2578.61ZM2805 766V384.182H2861.68V441.852H2865.66C2872.62 422.96 2885.21 407.631 2903.44 395.865C2921.67 384.099 2942.22 378.216 2965.09 378.216C2969.4 378.216 2974.78 378.299 2981.24 378.464C2987.71 378.63 2992.6 378.879 2995.91 379.21V438.869C2993.92 438.372 2989.36 437.626 2982.24 436.632C2975.28 435.472 2967.9 434.892 2960.12 434.892C2941.55 434.892 2924.98 438.786 2910.4 446.575C2895.98 454.198 2884.55 464.804 2876.1 478.393C2867.81 491.817 2863.67 507.146 2863.67 524.381V766H2805ZM3177.81 774.949C3153.61 774.949 3131.66 770.392 3111.94 761.277C3092.21 751.997 3076.55 738.656 3064.95 721.256C3053.35 703.689 3047.55 682.477 3047.55 657.619C3047.55 635.744 3051.86 618.012 3060.48 604.423C3069.1 590.669 3080.61 579.897 3095.03 572.108C3109.45 564.319 3125.36 558.519 3142.76 554.707C3160.33 550.73 3177.97 547.581 3195.71 545.261C3218.91 542.278 3237.72 540.041 3252.13 538.55C3266.72 536.893 3277.32 534.158 3283.95 530.347C3290.75 526.535 3294.14 519.906 3294.14 510.46V508.472C3294.14 483.945 3287.43 464.887 3274.01 451.298C3260.75 437.709 3240.62 430.915 3213.6 430.915C3185.6 430.915 3163.64 437.046 3147.73 449.31C3131.82 461.573 3120.64 474.665 3114.17 488.585L3058.49 468.699C3068.43 445.498 3081.69 427.435 3098.26 414.509C3115 401.417 3133.23 392.302 3152.95 387.165C3172.84 381.862 3192.39 379.21 3211.62 379.21C3223.88 379.21 3237.97 380.702 3253.87 383.685C3269.95 386.502 3285.44 392.385 3300.36 401.334C3315.44 410.283 3327.95 423.789 3337.89 441.852C3347.84 459.916 3352.81 484.111 3352.81 514.438V766H3294.14V714.295H3291.16C3287.18 722.581 3280.56 731.447 3271.27 740.893C3261.99 750.339 3249.65 758.377 3234.24 765.006C3218.82 771.634 3200.02 774.949 3177.81 774.949ZM3186.76 722.25C3209.96 722.25 3229.51 717.693 3245.42 708.578C3261.5 699.464 3273.59 687.697 3281.72 673.28C3290 658.862 3294.14 643.699 3294.14 627.79V574.097C3291.66 577.08 3286.19 579.814 3277.74 582.3C3269.45 584.62 3259.84 586.691 3248.9 588.514C3238.13 590.171 3227.61 591.663 3217.33 592.989C3207.22 594.149 3199.02 595.143 3192.72 595.972C3177.48 597.96 3163.23 601.192 3149.97 605.666C3136.88 609.975 3126.27 616.521 3118.15 625.304C3110.2 633.921 3106.22 645.687 3106.22 660.602C3106.22 680.986 3113.76 696.398 3128.84 706.838C3144.08 717.113 3163.39 722.25 3186.76 722.25ZM3459.88 766V384.182H3516.56V443.841H3521.53C3529.49 423.457 3542.33 407.631 3560.06 396.362C3577.79 384.928 3599.09 379.21 3623.95 379.21C3649.14 379.21 3670.1 384.928 3686.84 396.362C3703.74 407.631 3716.92 423.457 3726.36 443.841H3730.34C3740.12 424.12 3754.78 408.46 3774.34 396.859C3793.89 385.093 3817.34 379.21 3844.69 379.21C3878.82 379.21 3906.75 389.899 3928.46 411.277C3950.17 432.489 3961.02 465.55 3961.02 510.46V766H3902.36V510.46C3902.36 482.288 3894.65 462.153 3879.24 450.055C3863.83 437.958 3845.68 431.909 3824.8 431.909C3797.95 431.909 3777.15 440.029 3762.41 456.27C3747.66 472.345 3740.28 492.728 3740.28 517.42V766H3680.62V504.494C3680.62 482.785 3673.58 465.302 3659.49 452.044C3645.41 438.621 3627.26 431.909 3605.06 431.909C3589.81 431.909 3575.56 435.969 3562.3 444.089C3549.21 452.21 3538.6 463.479 3530.48 477.896C3522.53 492.148 3518.55 508.637 3518.55 527.364V766H3459.88ZM4228.37 773.955C4191.58 773.955 4159.84 765.834 4133.16 749.594C4106.65 733.188 4086.18 710.318 4071.76 680.986C4057.51 651.488 4050.39 617.184 4050.39 578.074C4050.39 538.964 4057.51 504.494 4071.76 474.665C4086.18 444.67 4106.23 421.303 4131.92 404.565C4157.77 387.662 4187.93 379.21 4222.4 379.21C4242.29 379.21 4261.93 382.525 4281.32 389.153C4300.7 395.782 4318.35 406.554 4334.26 421.469C4350.17 436.218 4362.85 455.773 4372.3 480.134C4381.74 504.494 4386.46 534.49 4386.46 570.119V594.977H4092.15V544.267H4326.81C4326.81 522.723 4322.5 503.5 4313.88 486.597C4305.43 469.693 4293.33 456.353 4277.59 446.575C4262.01 436.798 4243.61 431.909 4222.4 431.909C4199.04 431.909 4178.82 437.709 4161.75 449.31C4144.85 460.744 4131.84 475.659 4122.72 494.054C4113.61 512.449 4109.05 532.169 4109.05 553.216V587.023C4109.05 615.858 4114.02 640.302 4123.96 660.354C4134.07 680.24 4148.08 695.403 4165.97 705.844C4183.87 716.118 4204.67 721.256 4228.37 721.256C4243.78 721.256 4257.7 719.101 4270.13 714.793C4282.72 710.318 4293.58 703.689 4302.69 694.906C4311.81 685.957 4318.85 674.854 4323.82 661.597L4380.5 677.506C4374.53 696.729 4364.51 713.633 4350.42 728.216C4336.33 742.634 4318.93 753.902 4298.22 762.023C4277.5 769.977 4254.22 773.955 4228.37 773.955Z" fill="#817A7A"/>
<path d="M4680.53 766V256.909H4742.18V711.312H4978.83V766H4680.53ZM5178.69 774.949C5154.49 774.949 5132.53 770.392 5112.81 761.277C5093.09 751.997 5077.43 738.656 5065.83 721.256C5054.23 703.689 5048.43 682.477 5048.43 657.619C5048.43 635.744 5052.74 618.012 5061.36 604.423C5069.98 590.669 5081.49 579.897 5095.91 572.108C5110.33 564.319 5126.24 558.519 5143.64 554.707C5161.2 550.73 5178.85 547.581 5196.59 545.261C5219.79 542.278 5238.6 540.041 5253.01 538.55C5267.6 536.893 5278.2 534.158 5284.83 530.347C5291.63 526.535 5295.02 519.906 5295.02 510.46V508.472C5295.02 483.945 5288.31 464.887 5274.89 451.298C5261.63 437.709 5241.5 430.915 5214.48 430.915C5186.48 430.915 5164.52 437.046 5148.61 449.31C5132.7 461.573 5121.51 474.665 5115.05 488.585L5059.37 468.699C5069.31 445.498 5082.57 427.435 5099.14 414.509C5115.88 401.417 5134.11 392.302 5153.83 387.165C5173.72 381.862 5193.27 379.21 5212.49 379.21C5224.76 379.21 5238.84 380.702 5254.75 383.685C5270.83 386.502 5286.32 392.385 5301.24 401.334C5316.32 410.283 5328.83 423.789 5338.77 441.852C5348.72 459.916 5353.69 484.111 5353.69 514.438V766H5295.02V714.295H5292.04C5288.06 722.581 5281.43 731.447 5272.15 740.893C5262.87 750.339 5250.53 758.377 5235.12 765.006C5219.7 771.634 5200.89 774.949 5178.69 774.949ZM5187.64 722.25C5210.84 722.25 5230.39 717.693 5246.3 708.578C5262.38 699.464 5274.47 687.697 5282.59 673.28C5290.88 658.862 5295.02 643.699 5295.02 627.79V574.097C5292.54 577.08 5287.07 579.814 5278.62 582.3C5270.33 584.62 5260.72 586.691 5249.78 588.514C5239.01 590.171 5228.49 591.663 5218.21 592.989C5208.1 594.149 5199.9 595.143 5193.6 595.972C5178.36 597.96 5164.1 601.192 5150.85 605.666C5137.76 609.975 5127.15 616.521 5119.03 625.304C5111.07 633.921 5107.1 645.687 5107.1 660.602C5107.1 680.986 5114.64 696.398 5129.72 706.838C5144.96 717.113 5164.27 722.25 5187.64 722.25ZM5468.72 766V256.909H5527.38V444.835H5532.35C5536.66 438.206 5542.63 429.755 5550.25 419.48C5558.04 409.04 5569.14 399.759 5583.56 391.639C5598.15 383.353 5617.87 379.21 5642.72 379.21C5674.87 379.21 5703.21 387.248 5727.74 403.322C5752.26 419.397 5771.41 442.184 5785.16 471.682C5798.91 501.18 5805.79 535.981 5805.79 576.085C5805.79 616.521 5798.91 651.571 5785.16 681.234C5771.41 710.732 5752.35 733.602 5727.99 749.842C5703.63 765.917 5675.54 773.955 5643.72 773.955C5619.19 773.955 5599.55 769.894 5584.8 761.774C5570.06 753.488 5558.7 744.125 5550.75 733.685C5542.79 723.079 5536.66 714.295 5532.35 707.335H5525.39V766H5468.72ZM5526.39 575.091C5526.39 603.926 5530.61 629.364 5539.07 651.405C5547.52 673.28 5559.86 690.432 5576.1 702.861C5592.34 715.124 5612.23 721.256 5635.76 721.256C5660.29 721.256 5680.76 714.793 5697.16 701.866C5713.73 688.775 5726.16 671.208 5734.45 649.168C5742.9 626.961 5747.13 602.269 5747.13 575.091C5747.13 548.244 5742.98 524.049 5734.7 502.506C5726.58 480.796 5714.23 463.644 5697.66 451.05C5681.25 438.289 5660.62 431.909 5635.76 431.909C5611.9 431.909 5591.85 437.958 5575.61 450.055C5559.37 461.987 5547.1 478.725 5538.82 500.268C5530.53 521.646 5526.39 546.587 5526.39 575.091ZM6165.98 469.693L6113.28 484.608C6109.97 475.825 6105.08 467.29 6098.62 459.004C6092.32 450.553 6083.7 443.592 6072.77 438.124C6061.83 432.655 6047.83 429.92 6030.76 429.92C6007.39 429.92 5987.92 435.306 5972.34 446.078C5956.93 456.684 5949.22 470.19 5949.22 486.597C5949.22 501.18 5954.53 512.697 5965.13 521.149C5975.74 529.601 5992.31 536.644 6014.85 542.278L6071.52 556.199C6105.66 564.485 6131.1 577.162 6147.84 594.232C6164.58 611.135 6172.94 632.927 6172.94 659.608C6172.94 681.483 6166.65 701.038 6154.05 718.273C6141.62 735.508 6124.22 749.097 6101.85 759.04C6079.48 768.983 6053.46 773.955 6023.8 773.955C5984.85 773.955 5952.62 765.503 5927.1 748.599C5901.58 731.696 5885.42 707.004 5878.63 674.523L5934.31 660.602C5939.61 681.152 5949.64 696.563 5964.39 706.838C5979.3 717.113 5998.77 722.25 6022.8 722.25C6050.15 722.25 6071.85 716.45 6087.93 704.849C6104.17 693.083 6112.29 678.997 6112.29 662.591C6112.29 649.333 6107.65 638.23 6098.37 629.281C6089.09 620.167 6074.84 613.372 6055.61 608.898L5991.98 593.983C5957.01 585.697 5931.32 572.854 5914.92 555.453C5898.68 537.887 5890.56 515.929 5890.56 489.58C5890.56 468.036 5896.61 448.978 5908.7 432.406C5920.97 415.834 5937.62 402.825 5958.67 393.379C5979.88 383.933 6003.91 379.21 6030.76 379.21C6068.54 379.21 6098.2 387.496 6119.75 404.068C6141.46 420.64 6156.87 442.515 6165.98 469.693Z" fill="#342E2E"/>
</svg>
